<?xml version="1.0" standalone="no"?>
<!DOCTYPE svg PUBLIC "-//W3C//DTD SVG 20010904//EN"
 "http://www.w3.org/TR/2001/REC-SVG-20010904/DTD/svg10.dtd">
<svg version="1.0" xmlns="http://www.w3.org/2000/svg"
 width="256.000000pt" height="256.000000pt" viewBox="0 0 256.000000 256.000000"
 preserveAspectRatio="xMidYMid meet">
<metadata>
Created by potrace 1.16, written by Peter Selinger 2001-2019
</metadata>
<g transform="translate(0.000000,256.000000) scale(0.100000,-0.100000)"
fill="#000000" stroke="none">
<path d="M0 1280 l0 -1280 1280 0 1280 0 0 1280 0 1280 -1280 0 -1280 0 0
-1280z m1576 333 c27 -16 39 -73 24 -118 -17 -50 -42 -55 -309 -55 -171 0
-240 -3 -249 -12 -17 -17 -15 -65 4 -72 9 -3 101 -6 205 -6 107 0 198 -4 209
-10 39 -21 32 -127 -10 -150 -10 -6 -100 -10 -204 -10 -202 0 -216 -4 -216
-59 0 -50 6 -51 271 -51 136 0 259 -4 273 -10 28 -10 42 -46 32 -85 -10 -40
-54 -45 -419 -45 -368 0 -400 4 -412 53 -4 14 -5 153 -3 309 3 310 3 310 62
327 48 15 716 9 742 -6z"/>
</g>
</svg>
